<svg width="103" height="27" viewBox="0 0 103 27" fill="none" xmlns="http://www.w3.org/2000/svg">
<path fill-rule="evenodd" clip-rule="evenodd" d="M2.65793 0.790812C3.71021 -0.263604 5.4163 -0.263604 6.46858 0.790812L17.2467 11.5908C17.7521 12.0972 18.036 12.7839 18.036 13.5C18.036 14.2161 17.7521 14.9028 17.2467 15.4092L6.46858 26.2092C5.4163 27.2636 3.71021 27.2636 2.65793 26.2092C1.60564 25.1548 1.60564 23.4452 2.65793 22.3908L11.5308 13.5L2.65793 4.60919C1.60564 3.55477 1.60564 1.84523 2.65793 0.790812Z" fill="#4B9EFF" style="fill:#4B9EFF;fill:color(display-p3 0.2958 0.6197 1.0000);fill-opacity:1;"/>
<path fill-rule="evenodd" clip-rule="evenodd" d="M13.4361 0.790812C14.4884 -0.263604 16.1945 -0.263604 17.2467 0.790812L28.0249 11.5908C28.5302 12.0972 28.8141 12.7839 28.8141 13.5C28.8141 14.2161 28.5302 14.9028 28.0249 15.4092L17.2467 26.2092C16.1945 27.2636 14.4884 27.2636 13.4361 26.2092C12.3838 25.1548 12.3838 23.4452 13.4361 22.3908L22.3089 13.5L13.4361 4.60919C12.3838 3.55477 12.3838 1.84523 13.4361 0.790812Z" fill="#306CB1" style="fill:#306CB1;fill:color(display-p3 0.1885 0.4224 0.6958);fill-opacity:1;"/>
<path fill-rule="evenodd" clip-rule="evenodd" d="M14.8677 17.5555C17.2444 17.5555 19.2104 15.7937 19.5359 13.5023H20.9778C21.3033 15.7937 23.2693 17.5555 25.6459 17.5555C28.2502 17.5555 30.3614 15.44 30.3614 12.8305C30.3614 10.2209 28.2502 8.10547 25.6459 8.10547C23.2714 8.10547 21.3069 9.86407 20.9787 12.1523H19.535C19.2068 9.86407 17.2422 8.10547 14.8677 8.10547C12.4452 8.10547 10.4493 9.93603 10.1826 12.292L1.27337 12.2911C0.800408 12.291 0.366695 12.5546 0.148721 12.9745C-0.292671 13.8248 0.332794 14.838 1.29043 14.824L10.5308 14.6884C11.2511 16.3743 12.9218 17.5555 14.8677 17.5555Z" fill="#202D3D" style="fill:#202D3D;fill:color(display-p3 0.1257 0.1777 0.2375);fill-opacity:1;"/>
<path d="M38.3493 8.69685C37.8476 8.69685 37.435 8.55189 37.1116 8.26198C36.7994 7.96091 36.6433 7.59294 36.6433 7.15807C36.6433 6.71205 36.7994 6.34408 37.1116 6.05416C37.435 5.75309 37.8476 5.60256 38.3493 5.60256C38.84 5.60256 39.2414 5.75309 39.5536 6.05416C39.877 6.34408 40.0386 6.71205 40.0386 7.15807C40.0386 7.59294 39.877 7.96091 39.5536 8.26198C39.2414 8.55189 38.84 8.69685 38.3493 8.69685ZM39.771 9.66695V19H36.9109V9.66695H39.771ZM47.196 9.5666C48.2888 9.5666 49.1585 9.92342 49.8053 10.6371C50.4631 11.3395 50.7921 12.3096 50.7921 13.5474V19H47.9487V13.9321C47.9487 13.3076 47.787 12.8226 47.4636 12.4769C47.1403 12.1312 46.7054 11.9584 46.159 11.9584C45.6126 11.9584 45.1778 12.1312 44.8544 12.4769C44.531 12.8226 44.3693 13.3076 44.3693 13.9321V19H41.5092V9.66695H44.3693V10.9047C44.6593 10.4921 45.0495 10.1687 45.5402 9.93457C46.0308 9.68925 46.5827 9.5666 47.196 9.5666ZM57.6468 16.5747V19H56.1917C55.1547 19 54.3463 18.7491 53.7664 18.2473C53.1866 17.7344 52.8967 16.9037 52.8967 15.7552V12.042H51.7593V9.66695H52.8967V7.39223H55.7568V9.66695H57.6301V12.042H55.7568V15.7886C55.7568 16.0674 55.8237 16.2681 55.9575 16.3908C56.0913 16.5134 56.3143 16.5747 56.6265 16.5747H57.6468ZM67.7033 14.1829C67.7033 14.4506 67.6865 14.7293 67.6531 15.0192H61.1802C61.2248 15.5991 61.4088 16.0451 61.7321 16.3573C62.0666 16.6584 62.4736 16.8089 62.9531 16.8089C63.6668 16.8089 64.163 16.5078 64.4417 15.9057H67.4858C67.3297 16.519 67.0454 17.0709 66.6328 17.5616C66.2314 18.0522 65.724 18.4369 65.1108 18.7157C64.4975 18.9944 63.8117 19.1338 63.0535 19.1338C62.1391 19.1338 61.3251 18.9387 60.6115 18.5484C59.8979 18.1581 59.3403 17.6006 58.9389 16.8758C58.5375 16.151 58.3368 15.3036 58.3368 14.3335C58.3368 13.3634 58.5319 12.5159 58.9222 11.7911C59.3236 11.0664 59.8811 10.5088 60.5948 10.1186C61.3084 9.72828 62.128 9.53315 63.0535 9.53315C63.9567 9.53315 64.7595 9.72271 65.462 10.1018C66.1645 10.4809 66.7109 11.0218 67.1011 11.7242C67.5026 12.4267 67.7033 13.2463 67.7033 14.1829ZM64.7762 13.4303C64.7762 12.9397 64.609 12.5494 64.2745 12.2595C63.9399 11.9696 63.5218 11.8246 63.02 11.8246C62.5405 11.8246 62.1335 11.964 61.799 12.2427C61.4757 12.5215 61.275 12.9174 61.1969 13.4303H64.7762ZM71.7377 11.2225C72.0723 10.7095 72.4904 10.3081 72.9922 10.0182C73.494 9.71713 74.0515 9.5666 74.6648 9.5666V12.594H73.8786C73.165 12.594 72.6298 12.7501 72.273 13.0623C71.9161 13.3634 71.7377 13.8986 71.7377 14.668V19H68.8776V9.66695H71.7377V11.2225ZM75.1286 14.3168C75.1286 13.3578 75.3071 12.5159 75.6639 11.7911C76.0318 11.0664 76.528 10.5088 77.1525 10.1186C77.7769 9.72828 78.4738 9.53315 79.2432 9.53315C79.9011 9.53315 80.4754 9.66695 80.966 9.93457C81.4678 10.2022 81.8525 10.5534 82.1201 10.9883V9.66695H84.9802V19H82.1201V17.6787C81.8413 18.1135 81.451 18.4648 80.9493 18.7324C80.4586 19 79.8844 19.1338 79.2265 19.1338C78.4683 19.1338 77.7769 18.9387 77.1525 18.5484C76.528 18.147 76.0318 17.5839 75.6639 16.8591C75.3071 16.1231 75.1286 15.2757 75.1286 14.3168ZM82.1201 14.3335C82.1201 13.6198 81.9194 13.0567 81.5179 12.6442C81.1277 12.2316 80.6482 12.0253 80.0795 12.0253C79.5108 12.0253 79.0258 12.2316 78.6244 12.6442C78.2341 13.0456 78.039 13.6031 78.039 14.3168C78.039 15.0304 78.2341 15.5991 78.6244 16.0228C79.0258 16.4354 79.5108 16.6416 80.0795 16.6416C80.6482 16.6416 81.1277 16.4354 81.5179 16.0228C81.9194 15.6102 82.1201 15.0471 82.1201 14.3335ZM86.1462 14.3335C86.1462 13.3634 86.3413 12.5159 86.7316 11.7911C87.133 11.0664 87.685 10.5088 88.3874 10.1186C89.1011 9.72828 89.9151 9.53315 90.8294 9.53315C92.0002 9.53315 92.9759 9.83979 93.7565 10.4531C94.5481 11.0664 95.0666 11.9305 95.312 13.0456H92.2678C92.0114 12.3319 91.5152 11.9751 90.7792 11.9751C90.2552 11.9751 89.837 12.1814 89.5248 12.594C89.2126 12.9954 89.0565 13.5752 89.0565 14.3335C89.0565 15.0917 89.2126 15.6771 89.5248 16.0897C89.837 16.4911 90.2552 16.6918 90.7792 16.6918C91.5152 16.6918 92.0114 16.335 92.2678 15.6214H95.312C95.0666 16.7141 94.5481 17.5727 93.7565 18.1972C92.9648 18.8216 91.9891 19.1338 90.8294 19.1338C89.9151 19.1338 89.1011 18.9387 88.3874 18.5484C87.685 18.1581 87.133 17.6006 86.7316 16.8758C86.3413 16.151 86.1462 15.3036 86.1462 14.3335ZM101.709 16.5747V19H100.254C99.2169 19 98.4085 18.7491 97.8287 18.2473C97.2489 17.7344 96.9589 16.9037 96.9589 15.7552V12.042H95.8216V9.66695H96.9589V7.39223H99.8191V9.66695H101.692V12.042H99.8191V15.7886C99.8191 16.0674 99.886 16.2681 100.02 16.3908C100.154 16.5134 100.377 16.5747 100.689 16.5747H101.709Z" fill="#212121" style="fill:#212121;fill:color(display-p3 0.1294 0.1294 0.1294);fill-opacity:1;"/>
</svg>
