<svg width="130" height="40" viewBox="0 0 130 40" fill="none" xmlns="http://www.w3.org/2000/svg">
<path fill-rule="evenodd" clip-rule="evenodd" d="M4.90465 1.17157C6.31006 -0.390524 8.58868 -0.390524 9.99409 1.17157L24.3892 17.1716C25.0641 17.9217 25.4433 18.9391 25.4433 20C25.4433 21.0609 25.0641 22.0783 24.3892 22.8284L9.99408 38.8284C8.58867 40.3905 6.31005 40.3905 4.90464 38.8284C3.49923 37.2663 3.49923 34.7337 4.90464 33.1716L16.755 20L4.90465 6.82843C3.49924 5.26633 3.49924 2.73367 4.90465 1.17157Z" fill="#4B9EFF"/>
<path fill-rule="evenodd" clip-rule="evenodd" d="M19.2997 1.17157C20.7051 -0.390524 22.9837 -0.390524 24.3891 1.17157L38.7842 17.1716C39.4591 17.9217 39.8383 18.9391 39.8383 20C39.8383 21.0609 39.4591 22.0783 38.7842 22.8284L24.3891 38.8284C22.9837 40.3905 20.7051 40.3905 19.2997 38.8284C17.8943 37.2663 17.8943 34.7337 19.2997 33.1716L31.1501 20L19.2997 6.82843C17.8943 5.26633 17.8943 2.73367 19.2997 1.17157Z" fill="#306CB1"/>
<path fill-rule="evenodd" clip-rule="evenodd" d="M19.8704 25.4817C23.0446 25.4817 25.6703 23.2513 26.1051 20.3504H28.0313C28.4661 23.2513 31.0918 25.4817 34.266 25.4817C37.7442 25.4817 40.5639 22.8036 40.5639 19.4999C40.5639 16.1962 37.7442 13.5181 34.266 13.5181C31.0947 13.5181 28.4709 15.7444 28.0325 18.6414H26.1039C25.6655 15.7444 23.0417 13.5181 19.8704 13.5181C16.6348 13.5181 13.9691 15.8356 13.6129 18.8183L1.62963 18.8171C1.04651 18.817 0.513281 19.131 0.235665 19.638C-0.35447 20.7156 0.457085 22.0415 1.69627 22.0243L14.0781 21.8521C15.0401 23.9864 17.2714 25.4817 19.8704 25.4817Z" fill="#202D3D"/>
<path d="M51.368 14.144C50.888 14.144 50.4933 14.0053 50.184 13.728C49.8853 13.44 49.736 13.088 49.736 12.672C49.736 12.2453 49.8853 11.8933 50.184 11.616C50.4933 11.328 50.888 11.184 51.368 11.184C51.8373 11.184 52.2213 11.328 52.52 11.616C52.8293 11.8933 52.984 12.2453 52.984 12.672C52.984 13.088 52.8293 13.44 52.52 13.728C52.2213 14.0053 51.8373 14.144 51.368 14.144ZM52.728 15.072V24H49.992V15.072H52.728ZM59.8307 14.976C60.8761 14.976 61.7081 15.3173 62.3268 16C62.9561 16.672 63.2708 17.6 63.2708 18.784V24H60.5508V19.152C60.5508 18.5547 60.3961 18.0907 60.0868 17.76C59.7774 17.4293 59.3614 17.264 58.8387 17.264C58.3161 17.264 57.9001 17.4293 57.5908 17.76C57.2814 18.0907 57.1267 18.5547 57.1267 19.152V24H54.3907V15.072H57.1267V16.256C57.4041 15.8613 57.7774 15.552 58.2467 15.328C58.7161 15.0933 59.2441 14.976 59.8307 14.976ZM69.828 21.68V24H68.436C67.444 24 66.6707 23.76 66.116 23.28C65.5613 22.7893 65.284 21.9947 65.284 20.896V17.344H64.196V15.072H65.284V12.896H68.02V15.072H69.812V17.344H68.02V20.928C68.02 21.1947 68.084 21.3867 68.212 21.504C68.34 21.6213 68.5533 21.68 68.852 21.68H69.828ZM79.448 19.392C79.448 19.648 79.432 19.9147 79.4 20.192H73.208C73.2507 20.7467 73.4267 21.1733 73.736 21.472C74.056 21.76 74.4453 21.904 74.904 21.904C75.5867 21.904 76.0613 21.616 76.328 21.04H79.24C79.0907 21.6267 78.8187 22.1547 78.424 22.624C78.04 23.0933 77.5547 23.4613 76.968 23.728C76.3813 23.9947 75.7253 24.128 75 24.128C74.1253 24.128 73.3467 23.9413 72.664 23.568C71.9813 23.1947 71.448 22.6613 71.064 21.968C70.68 21.2747 70.488 20.464 70.488 19.536C70.488 18.608 70.6747 17.7973 71.048 17.104C71.432 16.4107 71.9653 15.8773 72.648 15.504C73.3307 15.1307 74.1147 14.944 75 14.944C75.864 14.944 76.632 15.1253 77.304 15.488C77.976 15.8507 78.4987 16.368 78.872 17.04C79.256 17.712 79.448 18.496 79.448 19.392ZM76.648 18.672C76.648 18.2027 76.488 17.8293 76.168 17.552C75.848 17.2747 75.448 17.136 74.968 17.136C74.5093 17.136 74.12 17.2693 73.8 17.536C73.4907 17.8027 73.2987 18.1813 73.224 18.672H76.648ZM83.3074 16.56C83.6274 16.0693 84.0274 15.6853 84.5074 15.408C84.9874 15.12 85.5207 14.976 86.1074 14.976V17.872H85.3554C84.6727 17.872 84.1607 18.0213 83.8194 18.32C83.478 18.608 83.3074 19.12 83.3074 19.856V24H80.5714V15.072H83.3074V16.56ZM86.5511 19.52C86.5511 18.6027 86.7218 17.7973 87.0631 17.104C87.4151 16.4107 87.8898 15.8773 88.4871 15.504C89.0845 15.1307 89.7511 14.944 90.4871 14.944C91.1165 14.944 91.6658 15.072 92.1351 15.328C92.6151 15.584 92.9831 15.92 93.2391 16.336V15.072H95.9751V24H93.2391V22.736C92.9725 23.152 92.5991 23.488 92.1191 23.744C91.6498 24 91.1005 24.128 90.4711 24.128C89.7458 24.128 89.0845 23.9413 88.4871 23.568C87.8898 23.184 87.4151 22.6453 87.0631 21.952C86.7218 21.248 86.5511 20.4373 86.5511 19.52ZM93.2391 19.536C93.2391 18.8533 93.0471 18.3147 92.6631 17.92C92.2898 17.5253 91.8311 17.328 91.2871 17.328C90.7431 17.328 90.2791 17.5253 89.8951 17.92C89.5218 18.304 89.3351 18.8373 89.3351 19.52C89.3351 20.2027 89.5218 20.7467 89.8951 21.152C90.2791 21.5467 90.7431 21.744 91.2871 21.744C91.8311 21.744 92.2898 21.5467 92.6631 21.152C93.0471 20.7573 93.2391 20.2187 93.2391 19.536ZM97.0905 19.536C97.0905 18.608 97.2772 17.7973 97.6505 17.104C98.0345 16.4107 98.5625 15.8773 99.2345 15.504C99.9172 15.1307 100.696 14.944 101.571 14.944C102.691 14.944 103.624 15.2373 104.371 15.824C105.128 16.4107 105.624 17.2373 105.859 18.304H102.947C102.701 17.6213 102.227 17.28 101.523 17.28C101.021 17.28 100.621 17.4773 100.323 17.872C100.024 18.256 99.8745 18.8107 99.8745 19.536C99.8745 20.2613 100.024 20.8213 100.323 21.216C100.621 21.6 101.021 21.792 101.523 21.792C102.227 21.792 102.701 21.4507 102.947 20.768H105.859C105.624 21.8133 105.128 22.6347 104.371 23.232C103.613 23.8293 102.68 24.128 101.571 24.128C100.696 24.128 99.9172 23.9413 99.2345 23.568C98.5625 23.1947 98.0345 22.6613 97.6505 21.968C97.2772 21.2747 97.0905 20.464 97.0905 19.536ZM111.978 21.68V24H110.586C109.594 24 108.821 23.76 108.266 23.28C107.711 22.7893 107.434 21.9947 107.434 20.896V17.344H106.346V15.072H107.434V12.896H110.17V15.072H111.962V17.344H110.17V20.928C110.17 21.1947 110.234 21.3867 110.362 21.504C110.49 21.6213 110.703 21.68 111.002 21.68H111.978Z" fill="#212121"/>
</svg>
