<svg width="124" height="32" viewBox="0 0 124 32" fill="none" xmlns="http://www.w3.org/2000/svg">
<path fill-rule="evenodd" clip-rule="evenodd" d="M4.33576 0.937258C5.58291 -0.312419 7.60494 -0.312419 8.85209 0.937259L21.6262 13.7373C22.2251 14.3374 22.5616 15.1513 22.5616 16C22.5616 16.8487 22.2251 17.6626 21.6262 18.2627L8.85209 31.0627C7.60494 32.3124 5.5829 32.3124 4.33575 31.0627C3.0886 29.8131 3.0886 27.7869 4.33575 26.5373L14.8517 16L4.33576 5.46274C3.0886 4.21306 3.0886 2.18694 4.33576 0.937258Z" fill="#4B9EFF"/>
<path fill-rule="evenodd" clip-rule="evenodd" d="M17.1092 0.937258C18.3563 -0.312419 20.3784 -0.312419 21.6255 0.937259L34.3996 13.7373C34.9986 14.3374 35.335 15.1513 35.335 16C35.335 16.8487 34.9986 17.6626 34.3996 18.2627L21.6255 31.0627C20.3784 32.3124 18.3563 32.3124 17.1092 31.0627C15.862 29.8131 15.862 27.7869 17.1092 26.5373L27.6251 16L17.1092 5.46274C15.862 4.21306 15.862 2.18694 17.1092 0.937258Z" fill="#306CB1"/>
<path fill-rule="evenodd" clip-rule="evenodd" d="M17.6158 20.6817C20.4326 20.6817 22.7626 18.5936 23.1484 15.878H24.858C25.2438 18.5936 27.5739 20.6817 30.3906 20.6817C33.4771 20.6817 35.9793 18.1745 35.9793 15.0817C35.9793 11.9889 33.4771 9.48169 30.3906 9.48169C27.5764 9.48169 25.248 11.566 24.859 14.278H23.1474C22.7584 11.566 20.43 9.48169 17.6158 9.48169C14.7446 9.48169 12.3791 11.6513 12.063 14.4436L1.50391 14.4425C0.943369 14.4424 0.429339 14.7548 0.170999 15.2525C-0.352132 16.2603 0.389165 17.4611 1.52414 17.4445L12.4758 17.2838C13.3295 19.2818 15.3095 20.6817 17.6158 20.6817Z" fill="#202D3D"/>
<path d="M46.1776 9.62288C45.6758 9.62288 45.2632 9.47792 44.9399 9.188C44.6276 8.88694 44.4715 8.51897 44.4715 8.0841C44.4715 7.63807 44.6276 7.2701 44.9399 6.98019C45.2632 6.67912 45.6758 6.52859 46.1776 6.52859C46.6682 6.52859 47.0696 6.67912 47.3818 6.98019C47.7052 7.2701 47.8669 7.63807 47.8669 8.0841C47.8669 8.51897 47.7052 8.88694 47.3818 9.188C47.0696 9.47792 46.6682 9.62288 46.1776 9.62288ZM47.5993 10.593V19.926H44.7392V10.593H47.5993ZM55.0243 10.4926C56.117 10.4926 56.9868 10.8494 57.6335 11.5631C58.2914 12.2656 58.6203 13.2357 58.6203 14.4734V19.926H55.7769V14.8581C55.7769 14.2336 55.6153 13.7486 55.2919 13.4029C54.9685 13.0573 54.5336 12.8844 53.9873 12.8844C53.4409 12.8844 53.006 13.0573 52.6826 13.4029C52.3593 13.7486 52.1976 14.2336 52.1976 14.8581V19.926H49.3375V10.593H52.1976V11.8307C52.4875 11.4181 52.8778 11.0948 53.3684 10.8606C53.859 10.6153 54.411 10.4926 55.0243 10.4926ZM65.4751 17.5008V19.926H64.0199C62.9829 19.926 62.1745 19.6751 61.5947 19.1734C61.0148 18.6604 60.7249 17.8297 60.7249 16.6812V12.9681H59.5876V10.593H60.7249V8.31826H63.585V10.593H65.4583V12.9681H63.585V16.7147C63.585 16.9934 63.652 17.1941 63.7858 17.3168C63.9196 17.4394 64.1426 17.5008 64.4548 17.5008H65.4751ZM75.5315 15.109C75.5315 15.3766 75.5148 15.6553 75.4813 15.9453H69.0084C69.053 16.5251 69.237 16.9711 69.5604 17.2833C69.8949 17.5844 70.3019 17.7349 70.7814 17.7349C71.495 17.7349 71.9912 17.4339 72.27 16.8317H75.3141C75.158 17.445 74.8736 17.997 74.4611 18.4876C74.0596 18.9782 73.5523 19.3629 72.939 19.6417C72.3257 19.9205 71.64 20.0598 70.8817 20.0598C69.9674 20.0598 69.1534 19.8647 68.4397 19.4744C67.7261 19.0842 67.1686 18.5266 66.7672 17.8018C66.3657 17.077 66.165 16.2296 66.165 15.2595C66.165 14.2894 66.3602 13.442 66.7504 12.7172C67.1518 11.9924 67.7094 11.4348 68.423 11.0446C69.1367 10.6543 69.9562 10.4592 70.8817 10.4592C71.7849 10.4592 72.5878 10.6487 73.2902 11.0279C73.9927 11.407 74.5391 11.9478 74.9294 12.6503C75.3308 13.3528 75.5315 14.1723 75.5315 15.109ZM72.6045 14.3563C72.6045 13.8657 72.4372 13.4754 72.1027 13.1855C71.7682 12.8956 71.35 12.7506 70.8483 12.7506C70.3688 12.7506 69.9618 12.89 69.6273 13.1688C69.3039 13.4475 69.1032 13.8434 69.0251 14.3563H72.6045ZM79.566 12.1485C79.9005 11.6356 80.3186 11.2341 80.8204 10.9442C81.3222 10.6432 81.8797 10.4926 82.493 10.4926V13.52H81.7069C80.9933 13.52 80.458 13.6761 80.1012 13.9883C79.7444 14.2894 79.566 14.8246 79.566 15.594V19.926H76.7059V10.593H79.566V12.1485ZM82.9569 15.2428C82.9569 14.2838 83.1353 13.442 83.4921 12.7172C83.8601 11.9924 84.3563 11.4348 84.9807 11.0446C85.6052 10.6543 86.3021 10.4592 87.0715 10.4592C87.7293 10.4592 88.3036 10.593 88.7942 10.8606C89.296 11.1282 89.6807 11.4795 89.9483 11.9143V10.593H92.8084V19.926H89.9483V18.6047C89.6696 19.0396 89.2793 19.3908 88.7775 19.6584C88.2869 19.926 87.7126 20.0598 87.0547 20.0598C86.2965 20.0598 85.6052 19.8647 84.9807 19.4744C84.3563 19.073 83.8601 18.5099 83.4921 17.7851C83.1353 17.0492 82.9569 16.2017 82.9569 15.2428ZM89.9483 15.2595C89.9483 14.5459 89.7476 13.9828 89.3462 13.5702C88.9559 13.1576 88.4764 12.9513 87.9078 12.9513C87.3391 12.9513 86.854 13.1576 86.4526 13.5702C86.0623 13.9716 85.8672 14.5291 85.8672 15.2428C85.8672 15.9564 86.0623 16.5251 86.4526 16.9488C86.854 17.3614 87.3391 17.5677 87.9078 17.5677C88.4764 17.5677 88.9559 17.3614 89.3462 16.9488C89.7476 16.5362 89.9483 15.9731 89.9483 15.2595ZM93.9744 15.2595C93.9744 14.2894 94.1696 13.442 94.5598 12.7172C94.9612 11.9924 95.5132 11.4348 96.2157 11.0446C96.9293 10.6543 97.7433 10.4592 98.6577 10.4592C99.8285 10.4592 100.804 10.7658 101.585 11.3791C102.376 11.9924 102.895 12.8565 103.14 13.9716H100.096C99.8396 13.258 99.3434 12.9012 98.6075 12.9012C98.0834 12.9012 97.6653 13.1074 97.3531 13.52C97.0408 13.9214 96.8847 14.5013 96.8847 15.2595C96.8847 16.0177 97.0408 16.6031 97.3531 17.0157C97.6653 17.4171 98.0834 17.6179 98.6075 17.6179C99.3434 17.6179 99.8396 17.261 100.096 16.5474H103.14C102.895 17.6402 102.376 18.4987 101.585 19.1232C100.793 19.7476 99.8173 20.0598 98.6577 20.0598C97.7433 20.0598 96.9293 19.8647 96.2157 19.4744C95.5132 19.0842 94.9612 18.5266 94.5598 17.8018C94.1696 17.077 93.9744 16.2296 93.9744 15.2595ZM109.537 17.5008V19.926H108.082C107.045 19.926 106.237 19.6751 105.657 19.1734C105.077 18.6604 104.787 17.8297 104.787 16.6812V12.9681H103.65V10.593H104.787V8.31826H107.647V10.593H109.521V12.9681H107.647V16.7147C107.647 16.9934 107.714 17.1941 107.848 17.3168C107.982 17.4394 108.205 17.5008 108.517 17.5008H109.537Z" fill="white"/>
</svg>
